<?xml version="1.0" standalone="no"?>
<!DOCTYPE svg PUBLIC "-//W3C//DTD SVG 20010904//EN"
 "http://www.w3.org/TR/2001/REC-SVG-20010904/DTD/svg10.dtd">
<svg version="1.0" xmlns="http://www.w3.org/2000/svg"
 width="558.000000pt" height="558.000000pt" viewBox="0 0 558.000000 558.000000"
 preserveAspectRatio="xMidYMid meet">

<g transform="translate(0.000000,558.000000) scale(0.100000,-0.100000)"
fill="#000000" stroke="none">
<path d="M2545 5544 c-557 -58 -1031 -246 -1475 -587 -122 -94 -355 -324 -454
-447 -140 -176 -281 -407 -366 -600 -172 -391 -251 -797 -237 -1215 13 -367
85 -688 230 -1028 441 -1030 1485 -1694 2617 -1664 284 8 466 37 725 115 331
101 601 238 885 450 153 114 420 382 534 534 257 346 424 719 510 1142 38 186
50 322 50 556 -1 246 -21 412 -79 641 -126 503 -359 919 -719 1284 -428 433
-972 707 -1591 801 -96 15 -539 27 -630 18z m625 -69 c251 -39 468 -100 692
-196 609 -261 1111 -745 1392 -1341 356 -756 346 -1631 -28 -2377 -501 -998
-1558 -1594 -2661 -1501 -986 84 -1853 697 -2259 1596 -388 858 -306 1857 216
2634 416 618 1078 1047 1804 1170 69 12 163 25 208 30 123 13 514 4 636 -15z"/>
<path d="M1362 4225 c-145 -50 -247 -140 -310 -273 -34 -71 -37 -85 -40 -183
-7 -178 38 -285 183 -438 47 -49 85 -92 85 -95 0 -4 -24 -69 -54 -144 -133
-336 -213 -741 -186 -934 6 -40 21 -96 34 -124 42 -91 86 -123 350 -254 384
-191 571 -311 844 -545 218 -186 308 -230 487 -241 201 -13 326 41 563 245
277 237 445 346 830 538 138 69 270 141 291 160 87 74 120 210 100 413 -20
210 -85 478 -170 698 -23 59 -49 126 -57 149 l-16 41 77 82 c146 152 200 266
200 420 -1 281 -231 510 -512 510 -141 0 -254 -47 -366 -152 l-71 -66 -43 19
c-87 39 -240 80 -376 101 -118 18 -182 22 -410 22 -367 0 -530 -23 -754 -107
l-93 -35 -36 40 c-49 54 -145 122 -212 149 -41 16 -82 23 -160 26 -93 3 -113
1 -178 -22z m280 -286 c34 -18 98 -69 98 -79 0 -4 -32 -39 -71 -77 -76 -72
-167 -180 -214 -251 l-28 -43 -34 33 c-47 45 -80 103 -93 165 -27 123 63 250
190 273 41 7 119 -4 152 -21z m2509 0 c43 -21 96 -79 115 -125 37 -88 5 -210
-74 -287 l-38 -37 -59 82 c-33 46 -104 128 -157 183 -54 55 -98 103 -98 107 0
3 14 18 31 32 86 73 191 90 280 45z m-1744 -715 c26 -9 97 -40 158 -70 147
-71 211 -83 299 -60 37 10 106 39 154 63 158 82 257 104 372 83 150 -27 292
-144 371 -304 44 -89 44 -90 44 -195 0 -100 -2 -110 -33 -173 -31 -64 -79
-114 -153 -160 -45 -28 -161 -59 -246 -65 -46 -3 -83 -8 -83 -11 0 -2 11 -70
24 -151 38 -221 48 -333 36 -386 -16 -70 -48 -131 -96 -180 -36 -38 -49 -45
-81 -45 -32 0 -282 36 -320 46 -8 2 -13 20 -13 46 l0 44 63 27 c64 28 148 99
172 147 51 101 -12 261 -113 290 -47 13 -296 13 -343 0 -71 -20 -138 -114
-139 -196 0 -90 83 -192 201 -245 48 -22 49 -24 49 -66 0 -26 -5 -45 -12 -47
-28 -8 -295 -46 -318 -46 -36 0 -113 81 -146 154 -23 51 -27 71 -26 150 1 76
33 312 57 432 l7 31 -89 6 c-191 12 -331 94 -399 233 -26 54 -29 68 -29 165 0
105 0 106 44 194 34 68 61 105 120 164 81 81 141 117 231 138 66 15 171 9 237
-13z m558 -1717 c72 -12 130 -26 130 -32 0 -19 -124 -93 -175 -104 -83 -18
-222 -14 -285 8 -53 19 -155 85 -155 100 0 10 241 49 305 49 28 1 109 -9 180
-21z"/>
<path d="M2188 2838 c-58 -51 -61 -117 -7 -162 60 -51 145 -31 175 40 27 64
-22 133 -98 141 -35 3 -48 0 -70 -19z"/>
<path d="M3255 2827 c-28 -28 -35 -43 -35 -74 0 -74 65 -123 139 -103 50 13
72 40 78 93 5 38 1 48 -24 77 -22 25 -39 33 -76 37 -43 5 -49 3 -82 -30z"/>
</g>
</svg>
